<?xml version="1.0" encoding="UTF-8"?>
<svg id="_圖層_2" data-name="圖層 2" xmlns="http://www.w3.org/2000/svg" viewBox="0 0 264 99.58">
  <defs>
    <style>
      .cls-1 {
        fill: #9a8276;
      }

      .cls-1, .cls-2 {
        stroke-width: 0px;
      }

      .cls-2 {
        fill: #221e1f;
      }
    </style>
  </defs>
  <g id="_商標設計" data-name="商標設計">
    <g>
      <g>
        <path class="cls-2" d="m95.04,87.7c-.54.36-1.14.54-1.8.54-1.04,0-1.82-.41-2.32-1.24-.5-.82-.75-1.86-.75-3.11,0-1.68.27-2.87.82-3.58.55-.71,1.3-1.06,2.25-1.06.76,0,1.38.24,1.86.71.48.47.8,1.16.98,2.06h.42c0-.6-.02-1.06-.06-1.4-.04-.33-.14-.61-.31-.84-.29-.35-.71-.64-1.26-.86-.55-.22-1.24-.33-2.06-.33-.87,0-1.65.23-2.36.7s-1.26,1.1-1.66,1.91c-.4.81-.6,1.7-.6,2.69s.18,1.8.55,2.56c.36.76.89,1.35,1.59,1.79s1.52.66,2.48.66,1.77-.19,2.41-.57c.63-.38,1.17-.98,1.62-1.8l-.49-.4c-.34.68-.78,1.2-1.32,1.56Z"/>
        <path class="cls-2" d="m106.12,79.28c-.7-.45-1.5-.68-2.41-.68s-1.71.23-2.41.68c-.7.45-1.25,1.07-1.63,1.85-.38.78-.57,1.66-.57,2.62s.19,1.84.57,2.62c.38.78.92,1.4,1.63,1.85.7.45,1.51.68,2.41.68s1.71-.23,2.41-.68c.7-.45,1.24-1.07,1.62-1.85.38-.78.57-1.66.57-2.62s-.19-1.84-.57-2.62c-.38-.78-.92-1.4-1.62-1.85Zm-.43,7.79c-.47.78-1.12,1.17-1.97,1.17s-1.5-.39-1.96-1.17c-.46-.78-.69-1.89-.69-3.32s.23-2.54.69-3.32c.46-.78,1.12-1.17,1.96-1.17s1.51.39,1.97,1.17c.47.78.7,1.89.7,3.32s-.23,2.54-.7,3.32Z"/>
        <path class="cls-2" d="m121.27,88.14c-.15-.43-.22-1.11-.22-2.03v-7.21h-1.83l-2.87,7.23-3.38-7.23h-1.71v9.71h.7v-8.01l3.75,8.01h.46l3.06-7.71v5.21c0,1.12.22,1.93.66,2.42.44.5,1.17.74,2.17.74v-.37c-.38-.08-.65-.33-.8-.77Z"/>
        <path class="cls-2" d="m130.61,87.57c-.36.25-.8.38-1.33.38h-2.39v-4.05h3.63v-.66h-3.63v-3.68h2.25c.58,0,1.01.14,1.31.43.29.28.44.73.44,1.34h.42v-1.25c0-.78-.4-1.18-1.19-1.18h-6.17v.44h.14c.39,0,.65.12.78.36.13.24.2.61.2,1.11v7.8h5.17c.35,0,.62-.08.78-.25.17-.17.31-.43.43-.78l.41-1.16-.38-.15c-.23.62-.53,1.05-.88,1.3Z"/>
        <path class="cls-2" d="m142.95,87.81c-.13-.24-.2-.61-.2-1.11v-7.8h-1.82v7.8c0,.51.04.9.11,1.17.07.27.2.46.38.57.18.11.43.17.77.17h1.68v-.44h-.14c-.39,0-.65-.12-.78-.36Z"/>
        <path class="cls-2" d="m153.42,85.67l-4.81-5.89c-.22-.3-.5-.53-.83-.67-.33-.14-.76-.21-1.28-.21h-.98v.44h.07c.46,0,.78.12.97.35.19.24.29.56.29.97v7.95h.7v-7.29l5.93,7.33h.64v-9.76h-.7v6.77Z"/>
        <path class="cls-2" d="m172.15,85.98l-2-5.36c-.29-.75-.67-1.25-1.13-1.5-.47-.25-1.01-.37-1.64-.37l-.54.03v.29c.31.04.58.17.82.4.24.23.46.61.66,1.14l.49,1.31-1.26,3.77-1.89-5.08c-.29-.76-.67-1.27-1.13-1.51-.47-.24-1.01-.36-1.64-.36l-.59.03v.29c.29.04.54.17.75.4.21.23.42.61.63,1.15l3.02,8.12h.56l1.92-5.77,2.15,5.77h.56l3.31-9.85h-.67l-2.39,7.08Z"/>
        <path class="cls-2" d="m183.77,87.57c-.36.25-.8.38-1.33.38h-2.39v-4.05h3.63v-.66h-3.63v-3.68h2.25c.58,0,1.01.14,1.31.43.29.28.44.73.44,1.34h.42v-1.25c0-.78-.4-1.18-1.19-1.18h-6.17v.44h.14c.39,0,.65.12.78.36.13.24.2.61.2,1.11v7.8h5.17c.35,0,.62-.08.78-.25.17-.17.31-.43.43-.78l.41-1.16-.38-.15c-.23.62-.53,1.05-.88,1.3Z"/>
        <path class="cls-2" d="m189.84,80.81c0-.5-.04-.89-.11-1.16-.07-.27-.2-.46-.38-.58-.18-.12-.43-.18-.77-.18h-1.68v.44h.14c.39,0,.65.12.78.36.13.24.2.61.2,1.11v7.8h6.64v-.66h-4.82v-7.14Z"/>
        <path class="cls-2" d="m198.97,80.81c0-.5-.04-.89-.11-1.16-.07-.27-.2-.46-.38-.58-.18-.12-.43-.18-.77-.18h-1.68v.44h.14c.39,0,.65.12.78.36.13.24.2.61.2,1.11v7.8h6.64v-.66h-4.82v-7.14Z"/>
        <rect class="cls-2" x="205.03" y="84.02" width="3.9" height="1.4"/>
        <path class="cls-2" d="m217.15,83.59c.61-.17,1.09-.45,1.43-.85.34-.4.51-.82.51-1.27,0-1.03-.39-1.72-1.18-2.06-.79-.34-1.77-.51-2.94-.51h-3.78v.44h.14c.39,0,.65.12.78.36.13.24.2.61.2,1.11v7.8h3.08c1.2,0,2.19-.19,2.96-.58.77-.39,1.16-1.09,1.16-2.11,0-1.38-.79-2.16-2.36-2.33Zm-3.02-4l.25-.04c.14-.04.34-.06.59-.06.61,0,1.13.15,1.54.45.42.3.62.79.62,1.46s-.18,1.15-.52,1.45c-.35.3-.83.45-1.43.45h-1.05v-3.71Zm2.82,7.9c-.41.35-.99.53-1.77.53h-.07c-.26,0-.49-.02-.7-.07-.08-.01-.18-.03-.28-.07v-3.92h1.05c1.58,0,2.38.68,2.38,2.03,0,.65-.2,1.15-.61,1.5Z"/>
        <path class="cls-2" d="m228.25,87.57c-.36.25-.8.38-1.33.38h-2.39v-4.05h3.63v-.66h-3.63v-3.68h2.25c.58,0,1.01.14,1.31.43.29.28.44.73.44,1.34h.42v-1.25c0-.78-.4-1.18-1.19-1.18h-6.17v.44h.14c.39,0,.65.12.78.36.13.24.2.61.2,1.11v7.8h5.17c.35,0,.62-.08.78-.25.17-.17.31-.43.43-.78l.41-1.16-.38-.15c-.23.62-.53,1.05-.88,1.3Z"/>
        <path class="cls-2" d="m234.29,87.81c-.13-.24-.2-.61-.2-1.11v-7.8h-1.82v7.8c0,.51.04.9.11,1.17.07.27.2.46.38.57.18.11.43.17.77.17h1.68v-.44h-.14c-.39,0-.65-.12-.78-.36Z"/>
        <path class="cls-2" d="m244.76,85.67l-4.81-5.89c-.22-.3-.5-.53-.83-.67-.33-.14-.76-.21-1.28-.21h-.98v.44h.07c.46,0,.78.12.97.35.19.24.29.56.29.97v7.95h.7v-7.29l5.93,7.33h.64v-9.76h-.7v6.77Z"/>
        <path class="cls-2" d="m255.31,85.31v2.62c-.53.26-1.16.38-1.89.38-.94,0-1.69-.36-2.24-1.1-.56-.73-.83-1.94-.83-3.61,0-1.25.25-2.28.75-3.11.5-.82,1.28-1.24,2.32-1.24.82,0,1.47.21,1.94.62.47.41.8,1.06.97,1.96h.42c0-.48-.02-.89-.06-1.22-.04-.33-.14-.61-.3-.82-.28-.34-.71-.63-1.29-.85-.58-.22-1.28-.34-2.1-.34-.9,0-1.71.22-2.41.65-.7.44-1.25,1.04-1.63,1.8-.38.76-.57,1.61-.57,2.55s.22,1.88.65,2.69c.43.81,1.04,1.45,1.8,1.91.77.47,1.63.7,2.58.7.73,0,1.39-.08,2-.24.61-.16,1.17-.41,1.71-.75v-2.63c0-.93.3-1.4.9-1.4v-.37c-1.06,0-1.78.17-2.15.51-.37.34-.56.77-.56,1.29Z"/>
      </g>
      <g>
        <path class="cls-2" d="m213.16,41.13c.69,1.11,2.86-1.31,2.04-2.2-1.66-1.83-6.78-5.21-9.9-6.41-.13-.05-.26.01-.32.14l-.32.72c-.05.11-.02.23.08.31,1.07.8,7.16,5.41,8.43,7.45Z"/>
        <path class="cls-2" d="m222.42,58.22c.13,1.45,3.5.13,3.14-1.17-.74-2.66-4.15-8.62-6.65-11.38-.09-.1-.24-.11-.35-.02l-.72.59c-.09.07-.12.2-.07.31.64,1.28,4.41,8.99,4.65,11.67Z"/>
        <path class="cls-2" d="m219.54,57.03h-1.28c-.13,0-.23.09-.25.22-.09.92-.45,4.31-1.16,5.96-.74,1.74-2.18,2.23-3.54,2.23h-5.53c-1.04,0-1.9-1.05-1.9-2.44v-19.72c0-1.24-2.74-2.77-2.74-2.26v23c0,2.31,1.79,4.02,3.74,4.02h6.94c1.63,0,3.26-.3,4.35-1.79.97-1.32,1.51-7.6,1.61-8.97.01-.14-.1-.26-.25-.26Z"/>
        <path class="cls-2" d="m199.36,46.38l-1.15-.19c-.14-.02-.27.07-.29.22-.47,3.84-3.34,10.04-5.12,12.45,0,0,2.15,2.54,3.24.91,2.23-3.33,3.49-9.14,3.54-13.13,0-.13-.09-.23-.22-.25Z"/>
        <path class="cls-2" d="m238.38,67.79v-19.72c2.04,2.13,3.51,5.99,3.63,6.28.12.31,2.99-1.26,2.27-2.26-.73-1-3.26-4.36-5.89-5.86v-1.23h4.86c.14,0,.25-.11.25-.25v-1.63c0-.14-.11-.25-.25-.25h-4.86v-5.72c1.8-.54,3.49-1.25,4.66-2.14.09-.07.12-.18.07-.29l-.84-2.08c-.06-.14-.22-.19-.35-.11-3.74,2.36-8.52,3.96-11.97,4.41-.15.02-.24.17-.19.31l.39,1.14c.03.1.13.17.23.16,1.23-.06,3.24-.3,5.36-.75v4.78c0,.08-.01.18-.02.27h-5.96c-.14,0-.25.11-.25.25v1.63c0,.14.11.25.25.25h5.64c-1.16,4.87-5.07,12-7.32,14.97-.07.1-.06.22.02.31l1.04,1.1c.1.1.26.11.36,0,1.61-1.81,4.72-6,6.25-9.1v15.5c0,.14.11.25.25.25h2.12c.14,0,.25-.11.25-.25Z"/>
        <path class="cls-2" d="m253.22,44.27v-2.54c-2.39-.91-5.37-3.36-6.38-5.62l-1.23.18c.44,1.9,3.34,7.44,7.62,7.98Z"/>
        <path class="cls-2" d="m253.22,53.36v-2.54c-2.39-.91-5.37-3.35-6.38-5.62l-1.23.18c.44,1.9,3.34,7.44,7.62,7.98Z"/>
        <path class="cls-2" d="m263.43,52.41c-1.56,1.15-3.74,2.28-6.3,3.25v-22.1c0-.14-.11-.25-.25-.25h-2.12c-.14,0-.25.11-.25.25v22.98c-2.08.62-4.32,1.12-6.63,1.41-2.37.3-4.85.41-7.37.3v2.74c2.74.08,6.1-.07,9.91-.73,1.4-.24,2.78-.64,4.1-1.12v8.64c0,.14.11.25.25.25h2.12c.14,0,.25-.11.25-.25v-9.74c3.29-1.57,5.87-3.51,6.88-4.62l-.57-1.03Z"/>
        <path class="cls-2" d="m90.83,38.37h25.74c.44,0,1.08-2.27.63-2.27h-13.01l-1.66-4.75c-.04-.11-.15-.18-.26-.16l-2.67.37c-.18.02-.27.22-.17.37l2.69,4.17h-12.03c-1.25,0-1.88.56-1.88,1.68s.09,13.24-.36,17.68c-.45,4.44-2.49,8.82-5.92,11.92-.53.48.95.86,1.46.54,1.8-1.13,3.51-3.1,5.29-6.45,1.33-2.5,2.16-7.13,2.16-10.32v-12.78Z"/>
        <path class="cls-2" d="m113.47,43.18c0-.74-.6-1.34-1.34-1.34h-7.52v-1.94c0-.13-.11-.24-.24-.24h-2.15c-.13,0-.24.11-.24.24v1.94h-7.34c-.13,0-.24.11-.24.24v1.55c0,.13.11.24.24.24h7.34v2.51h-9.53c-.13,0-.24.11-.24.24v1.56c0,.13.11.24.24.24h9.53v2.51h-7.34c-.13,0-.24.11-.24.24v1.55c0,.13.11.24.24.24h7.34v11.14c0,.91-.64,1.62-2.36,1.53-1.72-.09-4.35-.54-4.35-.54l-.45,1.1c1.54.44,3.45,1.16,5.44,1.43,1.99.27,4.35.09,4.35-1.35v-11.11c.29,1.14,1.34,2.98,2.59,4.49,2.28,2.77,6.21,5.51,8.59,6.26,1,.32,2.47-1.82,2.23-1.94-.24-.13-2.47-.36-6.23-2.9-.89-.6-1.71-1.24-2.45-1.9.01,0,.03,0,.04-.01,1.59-.59,4.68-3.06,5.49-4.26.3-.46-1.36-1.16-1.92-1.38-.1-.04-.21,0-.27.08-.74,1.13-2.55,3.71-4.18,4.78-1.94-1.89-3.27-3.85-3.88-5.42h7.52c.74,0,1.34-.6,1.34-1.34v-3.21h3.36c.41,0,1.19-2.04.67-2.04h-4.03v-3.21Zm-8.86.69h6.24v2.51h-6.24v-2.51Zm6.24,7.06h-6.24v-2.51h6.24v2.51Z"/>
        <path class="cls-2" d="m99.47,57.12c-1.52-1.17-4.23-2.88-5.72-3.25l-.43.65c1.24.77,3.59,2.99,4.64,4.26.75-.65,1.22-1.05,1.52-1.67Z"/>
        <path class="cls-2" d="m91.64,65.5c3.36-1.09,7.24-3.64,8.67-5.1.8-.82-.17-2.57-.17-2.57-1.87,2.91-6.54,4.84-10.03,5.65-.27.06,1.01,2.19,1.53,2.02Z"/>
        <path class="cls-2" d="m142.61,37.49v25.52c0,.59,1.65,1.01,2.34,1.16.15.03.29-.08.29-.23v-25.75h5.13v16.78c0,.68-.35,1.16-.73,1.16-.86,0-2.01-.22-3.03-.67-.13-.06-.28,0-.32.14l-.28.9c-.03.09,0,.19.07.25.6.5,2.04,1.11,3.63,1.49,1.21.29,3.28.27,3.28-1.22v-19.53c0-.74-.6-1.34-1.34-1.34h-7.69c-.74,0-1.34.6-1.34,1.34Z"/>
        <path class="cls-2" d="m128.33,39.11c.69,1.11,2.86-1.31,2.04-2.2-1.7-1.87-5.56-3.99-7.9-4.41-.42-.07.09,1.42.09,1.42,0,0,4.38,2.96,5.77,5.2Z"/>
        <path class="cls-2" d="m122.67,40.92c-.2-.05-.02,1.46.17,1.59,1.52,1.07,4.06,2.78,5.38,5.02.65,1.11,2.71-1.31,1.93-2.2-1.61-1.87-5.3-3.83-7.49-4.41Z"/>
        <path class="cls-2" d="m132.56,59.47c2.16,0,7.57-3.77,8.96-5.13.09-.09.1-.22.02-.32l-.52-.66c-.07-.09-.19-.12-.29-.06-.93.49-2.86,1.25-4.75,1.95v-16.27s.07-.01.12-.02c2.05-.46,5.06-2.66,6.97-4.53.1-.09.1-.24.01-.35l-1.29-1.5c-.1-.12-.28-.12-.38,0-1.45,1.65-3.3,3.4-5.2,4.61l-2.59-.3c-.14-.02-.27.1-.27.24v19.07c-.7.25-1.3.45-1.7.59-.09.03-.15.11-.16.2-.07.56-.2,2.48,1.07,2.48Z"/>
        <path class="cls-2" d="m154.3,64.94c-.57.09-9.96,1.02-14.7.53-4.48-.46-8.13-2.07-9.42-4.81-.42-1.1-.61-2.27-.61-2.83v-8c0-.74-.6-1.34-1.34-1.34h-6.16c-.13,0-.24.11-.24.24v1.56c0,.13.11.24.24.24h4.88v7.25c0,1.27-.51,2.96-1.56,4.39-.9,1.22-2.14,2.58-3.56,3.33-.18.1.6,2.72,1.1,2.54.99-.35,2.14-1.2,4.02-3.49.6-.73,1.09-1.53,1.49-2.34,1.02,1.49,2.6,3.01,4.92,4.06,2.58,1.17,6.02,1.77,9.02,1.77h11.92c.61,0,.57-3.18,0-3.09Z"/>
        <path class="cls-2" d="m181.91,57.19v7.22c0,.91-.64,1.62-2.36,1.53s-4.35-.54-4.35-.54l-.45,1.1c1.54.44,3.45,1.16,5.44,1.43,1.99.27,4.35.09,4.35-1.35v-11.96c2.7-2.81,4.75-5.43,5.32-6.18.09-.12.06-.29-.07-.36l-1.84-1.14c-.11-.07-.25-.04-.33.06-.39.5-1.57,2.01-3.08,3.76v-11.23c0-.74-.6-1.34-1.34-1.34h-11.97c1.65,0,3.92-3.45,4.74-4.78.08-.13.02-.3-.12-.36l-2.16-.91c-.13-.06-.28,0-.33.14-.44,1.24-1.17,3.22-2.22,4.56-.71.91-1.45,1.35-2.18,1.35h-2.27c-.74,0-1.34.6-1.34,1.34v16.27c-2.82.13-5.15.21-6.33.25-.16,0-.28.14-.25.28.16.68.62,2.38,1.11,2.45,3.17.5,12.25-.6,18.1-1.68-5.38,3.92-13.59,8.37-19.5,9.09-.13.02-.23.13-.22.27l.11,1.32c.01.13.12.24.25.24,4.41-.11,12.23-3.25,18.32-6.99,1.69-1.04,3.38-2.4,4.95-3.84Zm0-13.29h-13.95v-3.68h13.95v3.68Zm0,2.04v3.45h-13.95v-3.45h13.95Zm-13.95,5.49h13.95v2.2c-.28.29-.56.57-.84.85-3.6.57-8.65.95-13.11,1.19v-4.24Z"/>
      </g>
      <path class="cls-1" d="m56.43,71.6c-5.5-3.02-11.95.5-16.15,8.64-2.25,4.57-4.15,11-9.87,13.36-4.31,1.42-8.23-1.9-10.55-5.66-5.16-8-4.36-22.17,1.31-30.38,6.73-10.92,17.66-4.72,27.88-8.08,4.47-1.41,11.29-7.52,9.35-12.5-1.07-2.32-3.73-2.74-5.01-2.94-4.6-.72-9.24-1.73-13.76-2.98,5.54.36,11.18-.83,16.05-3.58.96-.54,1.29-1.75.75-2.71-.54-.96-1.75-1.29-2.71-.75-8.9,5.29-24.15,4.05-25.42-4.99-.48-3.45-.29-6.08,1.05-10.3.33-1.05-.25-2.16-1.29-2.5-1.05-.33-2.16.25-2.5,1.29-1.08,3.24-2.25,8.52-.79,13.14-1.89-1.77-3.52-3.86-4.83-6.2-2.17-3.89-3.28-8.19-3.21-12.45C16.77.92,15.9.02,14.8,0c-1.09-.01-2,.86-2.02,1.95-.15,9.47,4.67,18.74,12.41,24.14-3.08-1.3-5.95-2.7-8.54-4.17-.47-.27-1.02-.33-1.54-.18-.52.15-.95.51-1.2.98-2.14,3.99-1.78,9.43,1.23,12.83C2.89,43.2-1.85,58.69.64,73.2c1.13,7.9,4.71,14.39,10.78,19.2,7.81,5.93,18.48,8.44,28.16,6.57,9.07-1.68,16.89-7.41,19-16.33.46-1.92,1.67-8.41-2.15-11.03ZM6.55,51.69c2.75-6.15,7.25-11.09,12.68-13.91,1.18-.58,1.44-2.31.46-3.19-2.6-2.32-3.68-4.89-2.96-8.1,9.98,5.28,22.97,9.42,36.05,11.47,1.6.25,1.95.53,2.02.68,0,0,.15.35-.4,1.39-1.4,2.64-3.82,4.72-6.64,5.7-4.95,1.61-11.54.55-16.64,1.2-10.43.71-21.21,4.86-26.71,13.3.38-3.2,1.11-6.19,2.16-8.54Zm2.09,32.02c-8.6-13.15-1.89-25.22,10.54-30.15-8.06,10.02-9.22,27.7-1.82,37.77-3.44-1.7-6.54-4.49-8.72-7.63Zm46.08-2.01c-1.61,8.02-10.51,13.49-19.67,13.83,8.37-6.02,6.85-17.33,16.22-20.84.89-.29,2.06-.45,2.92.19,1.04.76,1.3,3.66.54,6.83Z"/>
    </g>
  </g>
</svg>